<svg width="80" height="80" viewBox="0 0 80 80" fill="none" xmlns="http://www.w3.org/2000/svg">
<path d="M56.6667 66.6663C60.3486 66.6663 63.3333 63.6816 63.3333 59.9997C63.3333 56.3178 60.3486 53.333 56.6667 53.333C52.9848 53.333 50 56.3178 50 59.9997C50 63.6816 52.9848 66.6663 56.6667 66.6663Z" stroke="#FF7050" stroke-width="4"/>
<path d="M23.3327 66.6663C27.0146 66.6663 29.9993 63.6816 29.9993 59.9997C29.9993 56.3178 27.0146 53.333 23.3327 53.333C19.6508 53.333 16.666 56.3178 16.666 59.9997C16.666 63.6816 19.6508 66.6663 23.3327 66.6663Z" stroke="#FF7050" stroke-width="4"/>
<path d="M16.666 59.9063C13.0093 59.7263 10.7327 59.183 9.10602 57.5597C7.47935 55.9363 6.93935 53.6563 6.75935 49.9997M29.9994 59.9997H49.9994M63.3327 59.9063C66.9894 59.7263 69.266 59.183 70.8927 57.5597C73.3327 55.1163 73.3327 51.1897 73.3327 43.333V36.6663H57.666C55.1827 36.6663 53.9427 36.6663 52.9394 36.3397C51.9389 36.0146 51.0295 35.4573 50.2856 34.7134C49.5417 33.9695 48.9845 33.0602 48.6593 32.0597C48.3327 31.0563 48.3327 29.8163 48.3327 27.333C48.3327 23.6097 48.3327 21.7497 47.8427 20.243C47.355 18.7423 46.5191 17.3782 45.4033 16.2624C44.2875 15.1466 42.9234 14.3107 41.4227 13.823C39.916 13.333 38.056 13.333 34.3327 13.333H6.66602M6.66602 26.6663H26.666M6.66602 36.6663H19.9993" stroke="#FF7050" stroke-width="4" stroke-linecap="round" stroke-linejoin="round"/>
<path d="M48.332 20H54.402C59.2554 20 61.6787 20 63.652 21.18C65.6287 22.3567 66.7787 24.4933 69.0787 28.7667L73.332 36.6667" stroke="#FF7050" stroke-width="4" stroke-linecap="round" stroke-linejoin="round"/>
</svg>
