<svg width="80" height="80" viewBox="0 0 80 80" fill="none" xmlns="http://www.w3.org/2000/svg">
<g clip-path="url(#clip0_117_8129)">
<path d="M79.7711 65.6227L65.1413 38.5677C66.6338 35.1802 67.4688 31.4364 67.4688 27.4977C67.4688 12.3177 55.1625 0.0126953 39.9838 0.0126953C24.8013 0.0126953 12.4963 12.3189 12.4963 27.4977C12.4963 31.5314 13.3725 35.3589 14.9325 38.8089L0.237545 65.6102C-0.236283 66.4714 -0.157533 67.5339 0.434967 68.3202C1.02872 69.104 2.03122 69.4727 2.98864 69.2478L15.5374 66.369L19.8324 78.3315C20.1674 79.2615 21.0161 79.9065 21.9999 79.979C22.0637 79.984 22.1249 79.9865 22.1849 79.9865C22.6369 79.9864 23.0805 79.8637 23.4683 79.6314C23.8562 79.3992 24.1738 79.0662 24.3874 78.6678L37.1761 54.8416C38.1086 54.9361 39.0452 54.9832 39.9824 54.9829C40.8511 54.9829 41.7086 54.9379 42.5561 54.8579L55.6223 78.6866C55.8535 79.109 56.2019 79.4556 56.6254 79.6847C57.049 79.9137 57.5298 80.0155 58.0098 79.9778C58.9911 79.899 59.8361 79.2553 60.1685 78.3303L64.4635 66.3678L77.0122 69.2465C77.9747 69.479 78.9672 69.1052 79.561 68.3239C80.1572 67.5439 80.2372 66.4865 79.771 65.6227H79.7711ZM22.6397 71.3552L19.4946 62.5926C19.0646 61.4014 17.8172 60.7076 16.5821 61.0014L7.30083 63.1301L17.8797 43.8351C21.3635 48.5414 26.3135 52.0914 32.0547 53.8189L22.6397 71.3552ZM17.5184 27.4976C17.5184 15.1114 27.5972 5.03387 39.9847 5.03387C52.3709 5.03387 62.4484 15.1114 62.4484 27.4976C62.4484 39.8839 52.3709 49.9639 39.9847 49.9639C27.5959 49.9639 17.5184 39.8839 17.5184 27.4976ZM63.4184 61.0013C62.1784 60.7088 60.9359 61.4013 60.5059 62.5925L57.3396 71.4187L47.7183 53.875C53.6121 52.1487 58.6822 48.505 62.2109 43.6613L72.7459 63.14L63.4184 61.0013Z" fill="#FF7050"/>
</g>
<defs>
<clipPath id="clip0_117_8129">
<rect width="80" height="80" fill="white"/>
</clipPath>
</defs>
</svg>
