<svg width="80" height="80" viewBox="0 0 80 80" fill="none" xmlns="http://www.w3.org/2000/svg">
<path d="M40.0006 73.3337C47.0731 73.3337 53.8559 70.5241 58.8568 65.5232C63.8578 60.5222 66.6673 53.7394 66.6673 46.667C66.6673 26.667 40.0006 6.66699 40.0006 6.66699C38.7073 14.957 37.4406 19.407 33.334 26.667C29.334 24.817 28.334 23.3337 26.6673 19.167C20.0007 26.667 13.334 36.667 13.334 46.667C13.334 53.7394 16.1435 60.5222 21.1445 65.5232C26.1454 70.5241 32.9282 73.3337 40.0006 73.3337Z" stroke="#FF7050" stroke-width="4" stroke-linejoin="round"/>
<path d="M48.3346 41.667L31.668 58.3337M32.918 42.5003H32.5013M47.918 57.5003H47.5013M33.3346 42.5003C33.3346 42.7213 33.2468 42.9333 33.0906 43.0896C32.9343 43.2459 32.7223 43.3337 32.5013 43.3337C32.2803 43.3337 32.0683 43.2459 31.912 43.0896C31.7558 42.9333 31.668 42.7213 31.668 42.5003C31.668 42.2793 31.7558 42.0673 31.912 41.9111C32.0683 41.7548 32.2803 41.667 32.5013 41.667C32.7223 41.667 32.9343 41.7548 33.0906 41.9111C33.2468 42.0673 33.3346 42.2793 33.3346 42.5003ZM48.3346 57.5003C48.3346 57.7213 48.2468 57.9333 48.0906 58.0896C47.9343 58.2459 47.7223 58.3337 47.5013 58.3337C47.2803 58.3337 47.0683 58.2459 46.912 58.0896C46.7558 57.9333 46.668 57.7213 46.668 57.5003C46.668 57.2793 46.7558 57.0674 46.912 56.9111C47.0683 56.7548 47.2803 56.667 47.5013 56.667C47.7223 56.667 47.9343 56.7548 48.0906 56.9111C48.2468 57.0674 48.3346 57.2793 48.3346 57.5003Z" stroke="#FF7050" stroke-width="4" stroke-linecap="round" stroke-linejoin="round"/>
</svg>
