<svg width="80" height="80" viewBox="0 0 80 80" fill="none" xmlns="http://www.w3.org/2000/svg">
<path d="M33.3327 54.9997L43.3327 58.333C43.3327 58.333 68.3327 53.333 71.666 53.333C74.9993 53.333 74.9993 56.6663 71.666 59.9997C68.3327 63.333 56.666 73.333 46.666 73.333C36.666 73.333 29.9993 68.333 23.3327 68.333H6.66602" stroke="#FF7050" stroke-width="4" stroke-linecap="round" stroke-linejoin="round"/>
<path d="M6.66602 48.333C9.99935 44.9997 16.666 39.9997 23.3327 39.9997C29.9994 39.9997 45.8327 46.6663 48.3327 49.9997C50.8327 53.333 43.3327 58.333 43.3327 58.333M26.666 29.9997V16.6663C26.666 15.7823 27.0172 14.9344 27.6423 14.3093C28.2674 13.6842 29.1153 13.333 29.9994 13.333H69.9994C70.8834 13.333 71.7313 13.6842 72.3564 14.3093C72.9815 14.9344 73.3327 15.7823 73.3327 16.6663V43.333" stroke="#FF7050" stroke-width="4" stroke-linecap="round" stroke-linejoin="round"/>
<path d="M41.666 13.333H58.3327V28.333H41.666V13.333Z" stroke="#FF7050" stroke-width="4" stroke-linecap="round" stroke-linejoin="round"/>
</svg>
